<svg width="18" height="18" viewBox="0 0 18 18" fill="none" xmlns="http://www.w3.org/2000/svg">
<path fill-rule="evenodd" clip-rule="evenodd" d="M2.33699 4.43293C1.19299 4.43293 0.273987 3.50693 0.273987 2.36793C0.273987 1.22993 1.19399 0.304932 2.33699 0.304932C3.47699 0.304932 4.40099 1.22993 4.40099 2.36793C4.40099 3.50693 3.47599 4.43293 2.33699 4.43293ZM17.447 17.4519H13.893V11.8829C13.893 10.5549 13.866 8.84593 12.041 8.84593C10.188 8.84593 9.90499 10.2909 9.90499 11.7849V17.4519H6.35099V5.99993H9.76499V7.56093H9.81099C10.288 6.66093 11.448 5.71093 13.181 5.71093C16.782 5.71093 17.448 8.08093 17.448 11.1659V17.4519H17.447ZM0.554987 5.99993V17.4519H4.11899V5.99993H0.554987Z" fill="white"/>
</svg>
